<?xml version="1.0" encoding="UTF-8" standalone="no"?>
<!DOCTYPE svg PUBLIC "-//W3C//DTD SVG 1.1//EN"
 "http://www.w3.org/Graphics/SVG/1.1/DTD/svg11.dtd">
<!-- Generated by graphviz version 2.47.0 (20210316.0004)
 -->
<!-- Title: dependencies Pages: 1 -->
<svg width="1147pt" height="284pt"
 viewBox="0.00 0.00 1147.00 284.00" xmlns="http://www.w3.org/2000/svg" xmlns:xlink="http://www.w3.org/1999/xlink">
<g id="graph0" class="graph" transform="scale(1 1) rotate(0) translate(4 280)">
<title>dependencies</title>
<polygon fill="white" stroke="transparent" points="-4,4 -4,-280 1143,-280 1143,4 -4,4"/>
<text text-anchor="start" x="548.51" y="-42.4" font-family="Times-12" font-weight="bold" font-size="14.00">Legend</text>
<polygon fill="#ffffb3" stroke="transparent" points="335.5,-10 335.5,-30 355.5,-30 355.5,-10 335.5,-10"/>
<text text-anchor="start" x="359.13" y="-15.4" font-family="Times-12" font-size="14.00"> &#160;Declarations</text>
<polygon fill="#8dd3c7" stroke="transparent" points="448.5,-10 448.5,-30 468.5,-30 468.5,-10 448.5,-10"/>
<text text-anchor="start" x="472.23" y="-15.4" font-family="Times-12" font-size="14.00"> &#160;Module</text>
<polygon fill="#80b1d3" stroke="transparent" points="534.5,-10 534.5,-30 554.5,-30 554.5,-10 534.5,-10"/>
<text text-anchor="start" x="558.28" y="-15.4" font-family="Times-12" font-size="14.00"> &#160;Bootstrap</text>
<polygon fill="#fdb462" stroke="transparent" points="631.5,-10 631.5,-30 651.5,-30 651.5,-10 631.5,-10"/>
<text text-anchor="start" x="655.17" y="-15.4" font-family="Times-12" font-size="14.00"> &#160;Providers</text>
<polygon fill="#fb8072" stroke="transparent" points="727.5,-10 727.5,-30 747.5,-30 747.5,-10 727.5,-10"/>
<text text-anchor="start" x="751.23" y="-15.4" font-family="Times-12" font-size="14.00"> &#160;Exports</text>
<g id="clust1" class="cluster">
<title>cluster_AppModule</title>
<polygon fill="none" stroke="black" stroke-dasharray="1,5" points="8,-70 8,-268 1131,-268 1131,-70 8,-70"/>
</g>
<g id="clust10" class="cluster">
<title>cluster_AppModule_imports</title>
<polygon fill="none" stroke="black" points="979,-78 979,-130 1123,-130 1123,-78 979,-78"/>
</g>
<g id="clust2" class="cluster">
<title>cluster_AppModule_declarations</title>
<polygon fill="none" stroke="black" points="16,-78 16,-130 971,-130 971,-78 16,-78"/>
</g>
<g id="clust12" class="cluster">
<title>cluster_AppModule_bootstrap</title>
<polygon fill="none" stroke="black" points="513,-208 513,-260 637,-260 637,-208 513,-208"/>
</g>
<!-- AppComponent -->
<g id="node1" class="node">
<title>AppComponent</title>
<polygon fill="#ffffb3" stroke="black" points="962.94,-122 857.06,-122 857.06,-86 962.94,-86 962.94,-122"/>
<text text-anchor="middle" x="910" y="-99.8" font-family="Times,serif" font-size="14.00">AppComponent</text>
</g>
<!-- AppModule -->
<g id="node8" class="node">
<title>AppModule</title>
<polygon fill="#8dd3c7" stroke="black" points="616.66,-187 613.66,-191 592.66,-191 589.66,-187 533.34,-187 533.34,-151 616.66,-151 616.66,-187"/>
<text text-anchor="middle" x="575" y="-164.8" font-family="Times,serif" font-size="14.00">AppModule</text>
</g>
<!-- AppComponent&#45;&gt;AppModule -->
<g id="edge1" class="edge">
<title>AppComponent&#45;&gt;AppModule</title>
<path fill="none" stroke="black" d="M910,-122.11C910,-141.34 910,-169 910,-169 910,-169 626.75,-169 626.75,-169"/>
<polygon fill="black" stroke="black" points="626.75,-165.5 616.75,-169 626.75,-172.5 626.75,-165.5"/>
</g>
<!-- CartComponent -->
<g id="node2" class="node">
<title>CartComponent</title>
<polygon fill="#ffffb3" stroke="black" points="839.94,-122 734.06,-122 734.06,-86 839.94,-86 839.94,-122"/>
<text text-anchor="middle" x="787" y="-99.8" font-family="Times,serif" font-size="14.00">CartComponent</text>
</g>
<!-- CartComponent&#45;&gt;AppModule -->
<g id="edge2" class="edge">
<title>CartComponent&#45;&gt;AppModule</title>
<path fill="none" stroke="black" d="M787,-122.03C787,-138.4 787,-160 787,-160 787,-160 626.88,-160 626.88,-160"/>
<polygon fill="black" stroke="black" points="626.88,-156.5 616.88,-160 626.88,-163.5 626.88,-156.5"/>
</g>
<!-- CatalogoComponent -->
<g id="node3" class="node">
<title>CatalogoComponent</title>
<polygon fill="#ffffb3" stroke="black" points="715.88,-122 584.12,-122 584.12,-86 715.88,-86 715.88,-122"/>
<text text-anchor="middle" x="650" y="-99.8" font-family="Times,serif" font-size="14.00">CatalogoComponent</text>
</g>
<!-- CatalogoComponent&#45;&gt;AppModule -->
<g id="edge3" class="edge">
<title>CatalogoComponent&#45;&gt;AppModule</title>
<path fill="none" stroke="black" d="M600.44,-122.11C600.44,-122.11 600.44,-140.99 600.44,-140.99"/>
<polygon fill="black" stroke="black" points="596.94,-140.99 600.44,-150.99 603.94,-140.99 596.94,-140.99"/>
</g>
<!-- ContactoComponent -->
<g id="node4" class="node">
<title>ContactoComponent</title>
<polygon fill="#ffffb3" stroke="black" points="565.88,-122 434.12,-122 434.12,-86 565.88,-86 565.88,-122"/>
<text text-anchor="middle" x="500" y="-99.8" font-family="Times,serif" font-size="14.00">ContactoComponent</text>
</g>
<!-- ContactoComponent&#45;&gt;AppModule -->
<g id="edge4" class="edge">
<title>ContactoComponent&#45;&gt;AppModule</title>
<path fill="none" stroke="black" d="M549.56,-122.11C549.56,-122.11 549.56,-140.99 549.56,-140.99"/>
<polygon fill="black" stroke="black" points="546.06,-140.99 549.56,-150.99 553.06,-140.99 546.06,-140.99"/>
</g>
<!-- FooterComponent -->
<g id="node5" class="node">
<title>FooterComponent</title>
<polygon fill="#ffffb3" stroke="black" points="415.88,-122 298.12,-122 298.12,-86 415.88,-86 415.88,-122"/>
<text text-anchor="middle" x="357" y="-99.8" font-family="Times,serif" font-size="14.00">FooterComponent</text>
</g>
<!-- FooterComponent&#45;&gt;AppModule -->
<g id="edge5" class="edge">
<title>FooterComponent&#45;&gt;AppModule</title>
<path fill="none" stroke="black" d="M357,-122.03C357,-138.4 357,-160 357,-160 357,-160 523.23,-160 523.23,-160"/>
<polygon fill="black" stroke="black" points="523.23,-163.5 533.23,-160 523.23,-156.5 523.23,-163.5"/>
</g>
<!-- HeaderComponent -->
<g id="node6" class="node">
<title>HeaderComponent</title>
<polygon fill="#ffffb3" stroke="black" points="279.74,-122 158.26,-122 158.26,-86 279.74,-86 279.74,-122"/>
<text text-anchor="middle" x="219" y="-99.8" font-family="Times,serif" font-size="14.00">HeaderComponent</text>
</g>
<!-- HeaderComponent&#45;&gt;AppModule -->
<g id="edge6" class="edge">
<title>HeaderComponent&#45;&gt;AppModule</title>
<path fill="none" stroke="black" d="M219,-122.11C219,-141.34 219,-169 219,-169 219,-169 523.12,-169 523.12,-169"/>
<polygon fill="black" stroke="black" points="523.12,-172.5 533.12,-169 523.12,-165.5 523.12,-172.5"/>
</g>
<!-- HomeComponent -->
<g id="node7" class="node">
<title>HomeComponent</title>
<polygon fill="#ffffb3" stroke="black" points="139.55,-122 24.45,-122 24.45,-86 139.55,-86 139.55,-122"/>
<text text-anchor="middle" x="82" y="-99.8" font-family="Times,serif" font-size="14.00">HomeComponent</text>
</g>
<!-- HomeComponent&#45;&gt;AppModule -->
<g id="edge7" class="edge">
<title>HomeComponent&#45;&gt;AppModule</title>
<path fill="none" stroke="black" d="M82,-122.29C82,-144.21 82,-178 82,-178 82,-178 522.97,-178 522.97,-178"/>
<polygon fill="black" stroke="black" points="522.97,-181.5 532.97,-178 522.97,-174.5 522.97,-181.5"/>
</g>
<!-- AppComponent  -->
<g id="node10" class="node">
<title>AppComponent </title>
<polygon fill="#80b1d3" stroke="black" points="629.44,-252 520.56,-252 520.56,-216 629.44,-216 629.44,-252"/>
<text text-anchor="middle" x="575" y="-229.8" font-family="Times,serif" font-size="14.00">AppComponent </text>
</g>
<!-- AppModule&#45;&gt;AppComponent  -->
<g id="edge9" class="edge">
<title>AppModule&#45;&gt;AppComponent </title>
<path fill="none" stroke="black" stroke-dasharray="1,5" d="M575,-187.11C575,-187.11 575,-205.99 575,-205.99"/>
<polygon fill="black" stroke="black" points="571.5,-205.99 575,-215.99 578.5,-205.99 571.5,-205.99"/>
</g>
<!-- AppRoutingModule -->
<g id="node9" class="node">
<title>AppRoutingModule</title>
<polygon fill="#8dd3c7" stroke="black" points="1115.27,-122 1112.27,-126 1091.27,-126 1088.27,-122 986.73,-122 986.73,-86 1115.27,-86 1115.27,-122"/>
<text text-anchor="middle" x="1051" y="-99.8" font-family="Times,serif" font-size="14.00">AppRoutingModule</text>
</g>
<!-- AppRoutingModule&#45;&gt;AppModule -->
<g id="edge8" class="edge">
<title>AppRoutingModule&#45;&gt;AppModule</title>
<path fill="none" stroke="black" d="M1051,-122.29C1051,-144.21 1051,-178 1051,-178 1051,-178 626.82,-178 626.82,-178"/>
<polygon fill="black" stroke="black" points="626.82,-174.5 616.82,-178 626.82,-181.5 626.82,-174.5"/>
</g>
</g>
</svg>
