<?xml version="1.0" encoding="UTF-8" standalone="no"?>
<!DOCTYPE svg PUBLIC "-//W3C//DTD SVG 1.1//EN"
 "http://www.w3.org/Graphics/SVG/1.1/DTD/svg11.dtd">
<!-- Generated by graphviz version 2.47.0 (20210316.0004)
 -->
<!-- Title: dependencies Pages: 1 -->
<svg width="1291pt" height="284pt"
 viewBox="0.00 0.00 1291.00 284.00" xmlns="http://www.w3.org/2000/svg" xmlns:xlink="http://www.w3.org/1999/xlink">
<g id="graph0" class="graph" transform="scale(1 1) rotate(0) translate(4 280)">
<title>dependencies</title>
<polygon fill="white" stroke="transparent" points="-4,4 -4,-280 1287,-280 1287,4 -4,4"/>
<text text-anchor="start" x="620.51" y="-42.4" font-family="Times-12" font-weight="bold" font-size="14.00">Legend</text>
<polygon fill="#ffffb3" stroke="transparent" points="407.5,-10 407.5,-30 427.5,-30 427.5,-10 407.5,-10"/>
<text text-anchor="start" x="431.13" y="-15.4" font-family="Times-12" font-size="14.00"> &#160;Declarations</text>
<polygon fill="#8dd3c7" stroke="transparent" points="520.5,-10 520.5,-30 540.5,-30 540.5,-10 520.5,-10"/>
<text text-anchor="start" x="544.23" y="-15.4" font-family="Times-12" font-size="14.00"> &#160;Module</text>
<polygon fill="#80b1d3" stroke="transparent" points="606.5,-10 606.5,-30 626.5,-30 626.5,-10 606.5,-10"/>
<text text-anchor="start" x="630.28" y="-15.4" font-family="Times-12" font-size="14.00"> &#160;Bootstrap</text>
<polygon fill="#fdb462" stroke="transparent" points="703.5,-10 703.5,-30 723.5,-30 723.5,-10 703.5,-10"/>
<text text-anchor="start" x="727.17" y="-15.4" font-family="Times-12" font-size="14.00"> &#160;Providers</text>
<polygon fill="#fb8072" stroke="transparent" points="799.5,-10 799.5,-30 819.5,-30 819.5,-10 799.5,-10"/>
<text text-anchor="start" x="823.23" y="-15.4" font-family="Times-12" font-size="14.00"> &#160;Exports</text>
<g id="clust1" class="cluster">
<title>cluster_AppModule</title>
<polygon fill="none" stroke="black" stroke-dasharray="1,5" points="8,-70 8,-268 1131,-268 1131,-70 8,-70"/>
</g>
<g id="clust2" class="cluster">
<title>cluster_AppModule_declarations</title>
<polygon fill="none" stroke="black" points="168,-78 168,-130 1123,-130 1123,-78 168,-78"/>
</g>
<g id="clust10" class="cluster">
<title>cluster_AppModule_imports</title>
<polygon fill="none" stroke="black" points="16,-78 16,-130 160,-130 160,-78 16,-78"/>
</g>
<g id="clust12" class="cluster">
<title>cluster_AppModule_bootstrap</title>
<polygon fill="none" stroke="black" points="869,-208 869,-260 993,-260 993,-208 869,-208"/>
</g>
<g id="clust20" class="cluster">
<title>cluster_AppServerModule</title>
<polygon fill="none" stroke="black" stroke-dasharray="1,5" points="1139,-208 1139,-260 1275,-260 1275,-208 1139,-208"/>
</g>
<!-- AppComponent -->
<g id="node1" class="node">
<title>AppComponent</title>
<polygon fill="#ffffb3" stroke="black" points="1114.94,-122 1009.06,-122 1009.06,-86 1114.94,-86 1114.94,-122"/>
<text text-anchor="middle" x="1062" y="-99.8" font-family="Times,serif" font-size="14.00">AppComponent</text>
</g>
<!-- AppModule -->
<g id="node8" class="node">
<title>AppModule</title>
<polygon fill="#8dd3c7" stroke="black" points="768.66,-187 765.66,-191 744.66,-191 741.66,-187 685.34,-187 685.34,-151 768.66,-151 768.66,-187"/>
<text text-anchor="middle" x="727" y="-164.8" font-family="Times,serif" font-size="14.00">AppModule</text>
</g>
<!-- AppComponent&#45;&gt;AppModule -->
<g id="edge1" class="edge">
<title>AppComponent&#45;&gt;AppModule</title>
<path fill="none" stroke="black" d="M1062,-122.27C1062,-140.56 1062,-166 1062,-166 1062,-166 778.75,-166 778.75,-166"/>
<polygon fill="black" stroke="black" points="778.75,-162.5 768.75,-166 778.75,-169.5 778.75,-162.5"/>
</g>
<!-- CartComponent -->
<g id="node2" class="node">
<title>CartComponent</title>
<polygon fill="#ffffb3" stroke="black" points="991.94,-122 886.06,-122 886.06,-86 991.94,-86 991.94,-122"/>
<text text-anchor="middle" x="939" y="-99.8" font-family="Times,serif" font-size="14.00">CartComponent</text>
</g>
<!-- CartComponent&#45;&gt;AppModule -->
<g id="edge2" class="edge">
<title>CartComponent&#45;&gt;AppModule</title>
<path fill="none" stroke="black" d="M935.88,-122.01C935.88,-138.05 935.88,-159 935.88,-159 935.88,-159 778.77,-159 778.77,-159"/>
<polygon fill="black" stroke="black" points="778.77,-155.5 768.77,-159 778.77,-162.5 778.77,-155.5"/>
</g>
<!-- CatalogoComponent -->
<g id="node3" class="node">
<title>CatalogoComponent</title>
<polygon fill="#ffffb3" stroke="black" points="867.88,-122 736.12,-122 736.12,-86 867.88,-86 867.88,-122"/>
<text text-anchor="middle" x="802" y="-99.8" font-family="Times,serif" font-size="14.00">CatalogoComponent</text>
</g>
<!-- CatalogoComponent&#45;&gt;AppModule -->
<g id="edge3" class="edge">
<title>CatalogoComponent&#45;&gt;AppModule</title>
<path fill="none" stroke="black" d="M752.44,-122.11C752.44,-122.11 752.44,-140.99 752.44,-140.99"/>
<polygon fill="black" stroke="black" points="748.94,-140.99 752.44,-150.99 755.94,-140.99 748.94,-140.99"/>
</g>
<!-- ContactoComponent -->
<g id="node4" class="node">
<title>ContactoComponent</title>
<polygon fill="#ffffb3" stroke="black" points="717.88,-122 586.12,-122 586.12,-86 717.88,-86 717.88,-122"/>
<text text-anchor="middle" x="652" y="-99.8" font-family="Times,serif" font-size="14.00">ContactoComponent</text>
</g>
<!-- ContactoComponent&#45;&gt;AppModule -->
<g id="edge4" class="edge">
<title>ContactoComponent&#45;&gt;AppModule</title>
<path fill="none" stroke="black" d="M701.56,-122.11C701.56,-122.11 701.56,-140.99 701.56,-140.99"/>
<polygon fill="black" stroke="black" points="698.06,-140.99 701.56,-150.99 705.06,-140.99 698.06,-140.99"/>
</g>
<!-- FooterComponent -->
<g id="node5" class="node">
<title>FooterComponent</title>
<polygon fill="#ffffb3" stroke="black" points="567.88,-122 450.12,-122 450.12,-86 567.88,-86 567.88,-122"/>
<text text-anchor="middle" x="509" y="-99.8" font-family="Times,serif" font-size="14.00">FooterComponent</text>
</g>
<!-- FooterComponent&#45;&gt;AppModule -->
<g id="edge5" class="edge">
<title>FooterComponent&#45;&gt;AppModule</title>
<path fill="none" stroke="black" d="M509,-122.01C509,-138.05 509,-159 509,-159 509,-159 675.23,-159 675.23,-159"/>
<polygon fill="black" stroke="black" points="675.23,-162.5 685.23,-159 675.23,-155.5 675.23,-162.5"/>
</g>
<!-- HeaderComponent -->
<g id="node6" class="node">
<title>HeaderComponent</title>
<polygon fill="#ffffb3" stroke="black" points="431.74,-122 310.26,-122 310.26,-86 431.74,-86 431.74,-122"/>
<text text-anchor="middle" x="371" y="-99.8" font-family="Times,serif" font-size="14.00">HeaderComponent</text>
</g>
<!-- HeaderComponent&#45;&gt;AppModule -->
<g id="edge6" class="edge">
<title>HeaderComponent&#45;&gt;AppModule</title>
<path fill="none" stroke="black" d="M371,-122.27C371,-140.56 371,-166 371,-166 371,-166 675.12,-166 675.12,-166"/>
<polygon fill="black" stroke="black" points="675.12,-169.5 685.12,-166 675.12,-162.5 675.12,-169.5"/>
</g>
<!-- HomeComponent -->
<g id="node7" class="node">
<title>HomeComponent</title>
<polygon fill="#ffffb3" stroke="black" points="291.55,-122 176.45,-122 176.45,-86 291.55,-86 291.55,-122"/>
<text text-anchor="middle" x="234" y="-99.8" font-family="Times,serif" font-size="14.00">HomeComponent</text>
</g>
<!-- HomeComponent&#45;&gt;AppModule -->
<g id="edge7" class="edge">
<title>HomeComponent&#45;&gt;AppModule</title>
<path fill="none" stroke="black" d="M234,-122.13C234,-142.57 234,-173 234,-173 234,-173 674.97,-173 674.97,-173"/>
<polygon fill="black" stroke="black" points="674.97,-176.5 684.97,-173 674.97,-169.5 674.97,-176.5"/>
</g>
<!-- AppComponent  -->
<g id="node10" class="node">
<title>AppComponent </title>
<polygon fill="#80b1d3" stroke="black" points="985.44,-252 876.56,-252 876.56,-216 985.44,-216 985.44,-252"/>
<text text-anchor="middle" x="931" y="-229.8" font-family="Times,serif" font-size="14.00">AppComponent </text>
</g>
<!-- AppModule&#45;&gt;AppComponent  -->
<g id="edge9" class="edge">
<title>AppModule&#45;&gt;AppComponent </title>
<path fill="none" stroke="black" stroke-dasharray="1,5" d="M768.78,-180C814.51,-180 881.41,-180 881.41,-180 881.41,-180 881.41,-205.72 881.41,-205.72"/>
<polygon fill="black" stroke="black" points="877.91,-205.72 881.41,-215.72 884.91,-205.72 877.91,-205.72"/>
</g>
<!-- AppServerModule -->
<g id="node11" class="node">
<title>AppServerModule</title>
<polygon fill="#8dd3c7" stroke="black" points="1267.19,-252 1264.19,-256 1243.19,-256 1240.19,-252 1146.81,-252 1146.81,-216 1267.19,-216 1267.19,-252"/>
<text text-anchor="middle" x="1207" y="-229.8" font-family="Times,serif" font-size="14.00">AppServerModule</text>
</g>
<!-- AppModule&#45;&gt;AppServerModule -->
<g id="edge10" class="edge">
<title>AppModule&#45;&gt;AppServerModule</title>
<path fill="none" stroke="black" d="M768.76,-173C885.54,-173 1207,-173 1207,-173 1207,-173 1207,-205.7 1207,-205.7"/>
<polygon fill="black" stroke="black" points="1203.5,-205.7 1207,-215.7 1210.5,-205.7 1203.5,-205.7"/>
</g>
<!-- AppRoutingModule -->
<g id="node9" class="node">
<title>AppRoutingModule</title>
<polygon fill="#8dd3c7" stroke="black" points="152.27,-122 149.27,-126 128.27,-126 125.27,-122 23.73,-122 23.73,-86 152.27,-86 152.27,-122"/>
<text text-anchor="middle" x="88" y="-99.8" font-family="Times,serif" font-size="14.00">AppRoutingModule</text>
</g>
<!-- AppRoutingModule&#45;&gt;AppModule -->
<g id="edge8" class="edge">
<title>AppRoutingModule&#45;&gt;AppModule</title>
<path fill="none" stroke="black" d="M88,-122.01C88,-144.49 88,-180 88,-180 88,-180 675.07,-180 675.07,-180"/>
<polygon fill="black" stroke="black" points="675.07,-183.5 685.07,-180 675.07,-176.5 675.07,-183.5"/>
</g>
<!-- AppServerModule&#45;&gt;AppComponent  -->
<g id="edge11" class="edge">
<title>AppServerModule&#45;&gt;AppComponent </title>
<path fill="none" stroke="black" stroke-dasharray="1,5" d="M1146.77,-234C1146.77,-234 995.48,-234 995.48,-234"/>
<polygon fill="black" stroke="black" points="995.48,-230.5 985.48,-234 995.48,-237.5 995.48,-230.5"/>
</g>
</g>
</svg>
